<svg width="49" height="48" fill="none" xmlns="http://www.w3.org/2000/svg"><path fill-rule="evenodd" clip-rule="evenodd" d="M24.5 14c-2.716 0-3.056.011-4.123.06-1.064.049-1.791.218-2.427.465a4.9 4.9 0 00-1.772 1.153 4.901 4.901 0 00-1.153 1.772c-.247.636-.416 1.363-.465 2.427-.049 1.067-.06 1.407-.06 4.123s.011 3.056.06 4.123c.049 1.064.218 1.791.465 2.427a4.903 4.903 0 001.153 1.772 4.903 4.903 0 001.772 1.153c.636.247 1.363.416 2.427.465 1.067.049 1.407.06 4.123.06s3.056-.011 4.123-.06c1.064-.049 1.791-.218 2.427-.465a4.903 4.903 0 001.772-1.153 4.903 4.903 0 001.153-1.772c.247-.636.416-1.363.465-2.427.049-1.067.06-1.407.06-4.123s-.011-3.056-.06-4.123c-.049-1.064-.218-1.791-.465-2.427a4.902 4.902 0 00-1.153-1.772 4.9 4.9 0 00-1.772-1.153c-.636-.247-1.363-.416-2.427-.465-1.067-.049-1.407-.06-4.123-.06zm-5.135 10a5.135 5.135 0 1110.27 0 5.135 5.135 0 01-10.27 0zm1.802 0a3.333 3.333 0 106.666 0 3.333 3.333 0 00-6.666 0zm7.374-8.14c-1.055-.048-1.37-.058-4.041-.058-2.67 0-2.986.01-4.04.058-.976.045-1.505.207-1.858.344-.466.182-.8.398-1.15.748-.35.35-.566.683-.748 1.15-.137.353-.3.882-.344 1.857-.048 1.055-.058 1.37-.058 4.041 0 2.67.01 2.986.058 4.04.045.976.207 1.505.344 1.858.182.466.398.8.748 1.15a3.1 3.1 0 001.15.748c.353.137.882.3 1.857.344 1.055.048 1.37.058 4.041.058 2.67 0 2.986-.01 4.04-.058.976-.045 1.505-.207 1.858-.344a3.1 3.1 0 001.15-.748c.35-.35.566-.684.748-1.15.136-.353.3-.882.344-1.857.048-1.055.058-1.37.058-4.041 0-2.67-.01-2.986-.058-4.04-.045-.976-.208-1.505-.344-1.858a3.098 3.098 0 00-.748-1.15 3.099 3.099 0 00-1.15-.748c-.353-.137-.882-.3-1.857-.344z" fill="#fff"/></svg>