<svg xmlns="http://www.w3.org/2000/svg" fill="none" viewBox="14.5 16 20 16.25"><path d="M32.453 20.047c.008.176.012.351.012.53 0 5.422-4.127 11.673-11.675 11.673-2.318 0-4.474-.679-6.29-1.843.322.036.649.056.979.056a8.225 8.225 0 005.095-1.755 4.109 4.109 0 01-3.831-2.849 4.146 4.146 0 001.851-.07 4.108 4.108 0 01-3.29-4.023v-.052a4.09 4.09 0 001.859.513 4.097 4.097 0 01-1.825-3.415c0-.752.202-1.457.555-2.063a11.644 11.644 0 008.457 4.287A4.102 4.102 0 0128.347 16a4.098 4.098 0 012.995 1.293 8.23 8.23 0 002.606-.996 4.118 4.118 0 01-1.804 2.27 8.18 8.18 0 002.356-.645 8.336 8.336 0 01-2.047 2.124z" fill="#fff"/></svg>