<svg width="49" height="48" fill="none" xmlns="http://www.w3.org/2000/svg"><path fill-rule="evenodd" clip-rule="evenodd" d="M32.314 16.448c.86.246 1.538.972 1.768 1.894.418 1.671.418 5.158.418 5.158s0 3.487-.418 5.158c-.23.922-.908 1.648-1.768 1.894C30.754 31 24.5 31 24.5 31s-6.254 0-7.814-.448c-.86-.246-1.538-.972-1.768-1.894C14.5 26.987 14.5 23.5 14.5 23.5s0-3.487.418-5.158c.23-.922.908-1.648 1.768-1.894C18.246 16 24.5 16 24.5 16s6.254 0 7.814.448zM27.696 23.5L22.5 20.286v6.428l5.196-3.214z" fill="#fff"/></svg>